<svg width="189" height="72" viewBox="0 0 189 72" fill="none" xmlns="http://www.w3.org/2000/svg">
<path fill-rule="evenodd" clip-rule="evenodd" d="M188 61.9728V10.0272C188 5.31774 184.16 1.5 179.424 1.5H65V70.5H179.424C181.698 70.5 183.88 69.6016 185.488 68.0024C187.096 66.4033 188 64.2344 188 61.9728Z" fill="#015A75"/>
<path d="M1 11C1 6.02944 5.02944 2 10 2H64V70H10C5.02944 70 1 65.9706 1 61V11Z" fill="white"/>
<path fill-rule="evenodd" clip-rule="evenodd" d="M64 71.5H179.656C184.814 71.4939 188.994 67.3236 189 62.1775V9.82251C188.994 4.67635 184.814 0.506079 179.656 0.5H64V71.5ZM179.656 70.0437H65.4597V1.9563H179.656C184.008 1.96086 187.536 5.48001 187.54 9.82251V62.1775C187.536 66.52 184.008 70.0391 179.656 70.0437Z" fill="#015A75"/>
<path fill-rule="evenodd" clip-rule="evenodd" d="M27.9382 24.5L24.8961 28.6209C23.3709 30.6841 23.8438 34.3379 25.926 35.8132L31.568 39.8104C32.5363 40.4973 32.6118 41.1841 32.1529 41.9011L32.9729 42.5L35.8302 38.6154C37.5961 36.2143 37.4422 32.9478 34.8227 31.0769L29.1304 27.0055C28.4503 26.5165 28.3776 25.8379 28.7554 25.0824L27.9354 24.5082" fill="#015A75"/>
<path fill-rule="evenodd" clip-rule="evenodd" d="M33.0171 6.5L28.2676 12.8393C26.0402 15.8126 26.851 20.8818 29.8947 23.0482L37.702 28.5805C39.2842 29.7015 39.4918 32.5584 38.3388 34.0207L39.0008 34.5L44.3871 27.1886C46.8053 23.9039 46.665 19.0513 42.8666 16.3894L34.5151 10.5321C33.3453 9.71973 32.7618 8.31973 33.7352 6.99014L33.0171 6.5" fill="#015A75"/>
<path fill-rule="evenodd" clip-rule="evenodd" d="M21 47.0424H27.2633L28.3802 50.5H38.617L39.7339 47.0424H46L45.179 44.5H21.821L21 47.0424Z" fill="#015A75"/>
<path fill-rule="evenodd" clip-rule="evenodd" d="M24.4229 59.1495C25.5562 58.4939 26.2522 57.5318 26.2522 56.2121C26.2522 53.5756 24.0633 52.5 21.6731 52.5H15V66.5H21.6156C24.4401 66.5 27.4315 65.2825 26.9483 62.0755C26.6607 60.2393 25.9243 59.8051 24.4258 59.1467L24.4229 59.1495ZM18.0115 55.1791H21.4861C23.652 55.1791 23.7297 58.1647 21.6213 58.1647H18.0115V55.1791ZM21.8859 63.855H18.0115V60.6622H21.8859C24.7306 60.6622 24.5552 63.855 21.8859 63.855Z" fill="#015A75"/>
<path fill-rule="evenodd" clip-rule="evenodd" d="M36.4229 59.1495C37.5562 58.4939 38.2523 57.5318 38.2523 56.2121C38.2523 53.5756 36.0634 52.5 33.6731 52.5H27V66.5H33.6156C36.4373 66.5 39.4316 65.2825 38.9483 62.0755C38.6607 60.2393 37.9244 59.8051 36.4258 59.1467L36.4229 59.1495ZM30.023 55.1734H33.489C35.6549 55.1734 35.7326 58.159 33.6242 58.159H30.0202L30.023 55.1734ZM33.8888 63.8521H30.0202V60.6622H33.886C36.7278 60.6622 36.5552 63.855 33.886 63.855L33.8888 63.8521Z" fill="#015A75"/>
<path fill-rule="evenodd" clip-rule="evenodd" d="M51.9455 62.0784C51.6578 60.2421 50.9215 59.8079 49.4229 59.1495C50.5562 58.4939 51.2523 57.5318 51.2523 56.2121C51.2523 53.5756 49.0634 52.5 46.6731 52.5H40V66.5H46.6156C49.4373 66.5 52.4316 65.2825 51.9483 62.0755L51.9455 62.0784ZM43.0317 55.1763H46.4862C48.6521 55.1763 48.7297 58.1619 46.6213 58.1619H43.0202L43.0317 55.1763ZM46.8975 63.855H43.0202V60.6622H46.886C49.7278 60.6622 49.5552 63.855 46.886 63.855H46.8975Z" fill="#015A75"/>
<path fill-rule="evenodd" clip-rule="evenodd" d="M82.7788 31.807L83.4282 33.5H86L81.9215 23.5H79.0958L75 33.5H77.5718L78.2385 31.807H82.7788ZM78.8591 29.9286L80.5101 25.6265L82.1611 29.9286H78.8591Z" fill="white"/>
<path fill-rule="evenodd" clip-rule="evenodd" d="M86 28.5088C86 25.5388 88.4434 23.5017 91.5979 23.5017C93.437 23.4551 95.1442 24.3755 95.9971 25.8735L94.0728 26.7431C93.5942 25.8953 92.6514 25.354 91.6123 25.3306C89.7052 25.3306 88.3172 26.6772 88.3172 28.4929C88.3172 30.3087 89.7052 31.6553 91.6123 31.6553C92.6567 31.6446 93.6091 31.1041 94.0872 30.2507L96 31.1282C95.2429 32.3299 93.918 33.5 91.6008 33.5C88.4577 33.5 86 31.4814 86 28.5088Z" fill="white"/>
<path fill-rule="evenodd" clip-rule="evenodd" d="M96 28.5206C96 25.5436 98.4441 23.5017 101.6 23.5017C103.439 23.4549 105.147 24.3776 106 25.8791L104.075 26.7507C103.594 25.8968 102.644 25.3536 101.6 25.3349C99.6919 25.3349 98.3035 26.6847 98.3035 28.5047C98.3035 30.3247 99.6919 31.6745 101.6 31.6745C102.644 31.6638 103.597 31.122 104.075 30.2666L106 31.1224C105.243 32.327 103.917 33.4998 101.6 33.4998C98.4469 33.5236 96 31.5002 96 28.5206Z" fill="white"/>
<path fill-rule="evenodd" clip-rule="evenodd" d="M111.641 29.9506L113.578 33.4918L116 33.5L113.78 29.6863C114.838 29.4439 115.933 28.4877 115.933 26.7198C115.933 24.862 114.673 23.5 112.618 23.5H108V33.4918H110.102V29.9506H111.641ZM112.297 25.3714C113.142 25.3714 113.777 25.8808 113.777 26.7198C113.777 27.5588 113.15 28.0682 112.297 28.0682H110.094V25.3714H112.297Z" fill="white"/>
<path fill-rule="evenodd" clip-rule="evenodd" d="M117 33.5V23.5H124V25.373H119.103V27.4858H123.884V29.3588H119.103V31.6216H123.989V33.4945L117 33.5Z" fill="white"/>
<path fill-rule="evenodd" clip-rule="evenodd" d="M126 23.5V33.5H129.836C132.878 33.5 135 31.5234 135 28.5082C135 25.4929 132.883 23.5 129.836 23.5H126ZM129.849 25.3757C131.836 25.3757 132.897 26.7388 132.897 28.5082L132.886 28.5055C132.886 30.2012 131.761 31.6243 129.849 31.6243H128.085V25.3757H129.849Z" fill="white"/>
<path fill-rule="evenodd" clip-rule="evenodd" d="M137 33.5V23.5H139V33.5H137Z" fill="white"/>
<path fill-rule="evenodd" clip-rule="evenodd" d="M143.934 33.5V25.373H141V23.5H149V25.373H146.083V33.5H143.934Z" fill="white"/>
<path fill-rule="evenodd" clip-rule="evenodd" d="M151 33.5V23.5H158V25.373H153.103V27.4858H157.879V29.3588H153.103V31.6216H157.989V33.4945L151 33.5Z" fill="white"/>
<path fill-rule="evenodd" clip-rule="evenodd" d="M160 23.5V33.5H163.836C166.878 33.5 169 31.5234 169 28.5082C169 25.4929 166.883 23.5 163.836 23.5H160ZM163.849 25.3757C165.836 25.3757 166.897 26.7388 166.897 28.5082L166.886 28.5055C166.886 30.2012 165.764 31.6243 163.849 31.6243H162.085V25.3757H163.849Z" fill="white"/>
<path fill-rule="evenodd" clip-rule="evenodd" d="M76 50.5V40.5H81.0557C82.8893 40.5 83.8219 41.7132 83.8219 43.0491C83.8219 44.3086 83.0727 45.1483 82.1663 45.3419C83.188 45.5055 84 46.5414 84 47.7955C84 49.295 83.036 50.4945 81.205 50.4945L76 50.5ZM81.7341 43.4117C81.7349 43.1082 81.6141 42.8181 81.4009 42.6112C81.1876 42.4043 80.9012 42.2992 80.6103 42.3212H78.0458V44.5022H80.6103C81.2993 44.5022 81.7315 44.0523 81.7315 43.4226L81.7341 43.4117ZM80.6811 46.3315C81.4879 46.3315 81.9201 46.8713 81.9201 47.5011C81.9201 48.2154 81.4512 48.6543 80.6811 48.6543H78.0458V46.3315H80.6811Z" fill="white"/>
<path fill-rule="evenodd" clip-rule="evenodd" d="M86 46.4052V40.5H88.168V46.3329C88.168 47.7014 88.981 48.6441 90.5068 48.6441C92.0325 48.6441 92.832 47.7014 92.832 46.3329V40.5H95V46.3918C95 48.8369 93.5393 50.5 90.5149 50.5C87.4905 50.5 86 48.8208 86 46.4052Z" fill="white"/>
<path fill-rule="evenodd" clip-rule="evenodd" d="M97 48.9542L98.1209 47.3874C98.928 48.2251 100.045 48.697 101.211 48.6931C102.347 48.6931 102.901 48.1655 102.901 47.6195C102.901 46.9099 101.998 46.7068 100.935 46.4457C99.3451 46.0843 97.3074 45.6543 97.3074 43.4438C97.3074 41.8347 98.7065 40.5 100.993 40.5C102.538 40.5 103.821 40.9643 104.783 41.8479L103.63 43.3594C102.853 42.6687 101.844 42.2924 100.803 42.3043C99.9149 42.3043 99.4193 42.6973 99.4193 43.275C99.4193 43.9002 100.307 44.1006 101.356 44.3486C102.946 44.7258 105 45.2059 105 47.3953C105 49.1653 103.733 50.5 101.11 50.5C99.2445 50.4815 97.9036 49.8669 97 48.9542Z" fill="white"/>
<path fill-rule="evenodd" clip-rule="evenodd" d="M107 50.5V40.5H109V50.5H107Z" fill="white"/>
<path fill-rule="evenodd" clip-rule="evenodd" d="M117.94 50.5L113.142 43.9787V50.5H111V40.5H113.194L117.858 46.7704V40.5H120V50.5H117.94Z" fill="white"/>
<path fill-rule="evenodd" clip-rule="evenodd" d="M122 50.5V40.5H129V42.373H124.103V44.4858H128.884V46.3588H124.103V48.6216H128.987V50.4945L122 50.5Z" fill="white"/>
<path fill-rule="evenodd" clip-rule="evenodd" d="M130 48.9542L131.12 47.3874C131.926 48.2251 133.042 48.697 134.206 48.6931C135.342 48.6931 135.895 48.1655 135.895 47.6195C135.895 46.9099 134.993 46.7068 133.931 46.4457C132.343 46.0843 130.307 45.6543 130.307 43.4438C130.307 41.8347 131.705 40.5 133.989 40.5C135.533 40.5 136.814 40.9643 137.775 41.8479L136.631 43.3594C135.855 42.669 134.847 42.2926 133.807 42.3043C132.92 42.3043 132.425 42.6973 132.425 43.275C132.425 43.9002 133.314 44.1006 134.36 44.3486C135.948 44.7258 138 45.2059 138 47.3953C138 49.1653 136.735 50.5 134.114 50.5C132.25 50.4815 130.911 49.8669 130 48.9542Z" fill="white"/>
<path fill-rule="evenodd" clip-rule="evenodd" d="M140 48.9542L141.121 47.3874C141.928 48.2251 143.045 48.697 144.211 48.6931C145.347 48.6931 145.901 48.1655 145.901 47.6195C145.901 46.9099 144.998 46.7068 143.935 46.4457C142.345 46.0843 140.307 45.6543 140.307 43.4438C140.307 41.8347 141.707 40.5 143.993 40.5C145.538 40.5 146.821 40.9643 147.783 41.8479L146.63 43.3594C145.853 42.669 144.844 42.2926 143.803 42.3043C142.915 42.3043 142.419 42.6973 142.419 43.275C142.419 43.9002 143.31 44.1006 144.356 44.3486C145.946 44.7258 148 45.2059 148 47.3953C148 49.1653 146.733 50.5 144.11 50.5C142.242 50.4815 140.901 49.8669 140 48.9542Z" fill="white"/>
<path fill-rule="evenodd" clip-rule="evenodd" d="M9.38691 71.5H66V0.5H9.38691C4.2052 0.506079 0.00612134 4.67635 0 9.82251V62.1775C0.00612134 67.3236 4.2052 71.4939 9.38691 71.5ZM1.46636 9.82251C1.47095 5.48001 5.01442 1.96086 9.38691 1.9563H64.5336V70.0437H9.38691C5.01442 70.0391 1.47095 66.52 1.46636 62.1775V9.82251Z" fill="#015A75"/>
</svg>
