<svg width="5" height="13" viewBox="0 0 5 13" fill="none" xmlns="http://www.w3.org/2000/svg">
<path fill-rule="evenodd" clip-rule="evenodd" d="M0.609375 1.82812C0.609375 0.818467 1.42784 0 2.4375 0C3.44713 0 4.26562 0.818467 4.26562 1.82812C4.26562 2.83778 3.44716 3.65625 2.4375 3.65625C1.42784 3.65625 0.609375 2.83778 0.609375 1.82812ZM1.01562 10.7714H0.507812C0.227348 10.7714 0 10.9988 0 11.2793V12.4922C0 12.7727 0.227348 13 0.507812 13H4.36719C4.64765 13 4.875 12.7727 4.875 12.4922V11.2793C4.875 10.9988 4.64765 10.7714 4.36719 10.7714H3.85938V5.38281C3.85938 5.10235 3.63203 4.875 3.35156 4.875H0.507812C0.227348 4.875 0 5.10235 0 5.38281V6.59575C0 6.87621 0.227348 7.10356 0.507812 7.10356H1.01562V10.7714Z" fill="#212121"/>
</svg>
