<svg width="12" height="14" viewBox="0 0 12 14" fill="none" xmlns="http://www.w3.org/2000/svg">
<path fill-rule="evenodd" clip-rule="evenodd" d="M8.6565 1.0565L7.9415 1.7715C8.7665 2.371 9.3 3.339 9.3 4.4335H2.7C2.7 3.339 3.2335 2.3765 4.0475 1.777L3.327 1.0565C3.217 0.946496 3.217 0.775996 3.327 0.665996C3.437 0.555996 3.6075 0.555996 3.7175 0.665996L4.537 1.48C4.977 1.26 5.472 1.1335 6 1.1335C6.5225 1.1335 7.0175 1.26 7.452 1.48L8.266 0.665996C8.376 0.555996 8.5465 0.555996 8.6565 0.665996C8.7665 0.775996 8.7665 0.946496 8.6565 1.0565ZM0.5 5.8085C0.5 5.352 0.8685 4.9835 1.325 4.9835C1.7815 4.9835 2.15 5.352 2.15 5.8085V9.6585C2.15 10.115 1.7815 10.4835 1.325 10.4835C0.8685 10.4835 0.5 10.115 0.5 9.6585V5.8085ZM3.25 11.0335C2.9475 11.0335 2.7 10.786 2.7 10.4835V4.9835H9.3V10.4835C9.3 10.786 9.0525 11.0335 8.75 11.0335H8.2V12.9585C8.2 13.415 7.8315 13.7835 7.375 13.7835C6.9185 13.7835 6.55 13.415 6.55 12.9585V11.0335H5.45V12.9585C5.45 13.415 5.0815 13.7835 4.625 13.7835C4.1685 13.7835 3.8 13.415 3.8 12.9585V11.0335H3.25ZM10.675 4.9835C10.2185 4.9835 9.85 5.352 9.85 5.8085V9.6585C9.85 10.115 10.2185 10.4835 10.675 10.4835C11.1315 10.4835 11.5 10.115 11.5 9.6585V5.8085C11.5 5.352 11.1315 4.9835 10.675 4.9835ZM4.9 3.3335H4.35V2.7835H4.9V3.3335ZM7.1 3.3335H7.65V2.7835H7.1V3.3335Z" fill="#88C347"/>
</svg>
