<svg width="8" height="10" viewBox="0 0 8 10" fill="none" xmlns="http://www.w3.org/2000/svg">
<path d="M2.08039 10C0.75075 6.33701 3.56024 4.99956 3.56024 4.99956C3.36367 6.95416 4.69227 8.47694 4.69227 8.47694C5.1809 8.35368 6.11357 7.77762 6.11357 7.77762C6.11357 8.47694 5.62144 9.99913 5.62144 9.99913C5.62144 9.99913 7.34422 8.88546 7.88653 7.03575C8.42815 5.18605 6.85489 3.32906 6.85489 3.32906C6.94969 4.63825 6.41992 5.92587 5.382 6.90958C5.43393 6.85947 5.4775 6.80381 5.51096 6.74349C5.69742 6.43171 5.99681 5.62138 5.8215 3.74486C5.57474 1.11075 2.71994 0 2.71994 0C2.966 1.60494 2.22816 1.97471 0.499809 5.02113C-1.22855 8.06696 2.08039 10 2.08039 10Z" fill="#FF512F"/>
</svg>
