<svg width="24" height="24" viewBox="0 0 24 24" fill="none" xmlns="http://www.w3.org/2000/svg">
<g id="ic_flame_menu">
<path id="Shape" d="M8.47954 18.5541C7.72581 17.7196 6.97211 16.8517 6.49244 15.8169C6.01281 14.7153 5.87576 13.4468 6.11559 12.2451C6.35543 11.0434 6.90357 9.90844 7.69157 8.9404C7.62306 9.77494 7.9314 10.6428 8.51382 11.2771C8.1712 9.67479 8.71938 7.93897 9.81569 6.6705C10.912 5.40203 12.4195 4.56747 13.9954 4C13.2074 4.80114 13.1047 6.06961 13.413 7.13783C13.7214 8.20601 14.3723 9.14069 14.9547 10.1087C15.5371 11.0768 16.0853 12.0782 16.1196 13.1798C16.4279 12.6123 16.7705 12.0448 16.9761 11.4106C17.1816 10.7763 17.2844 10.1087 17.1131 9.47448C17.7298 10.2089 18.0724 10.9432 18.2437 11.8779C18.415 12.8126 18.3808 13.7806 18.278 14.7153C18.1409 15.7501 17.8669 16.8183 17.2845 17.6862C16.5993 18.721 15.5029 19.4554 14.3038 19.856C12.1796 20.2232 10.0898 19.9227 8.47954 18.5541Z" fill="#212121"/>
<path id="Shape_2" d="M11.1049 19.7859C13.8301 20.877 16.5221 17.5695 15.0265 15.0122C15.0265 14.9781 14.9933 14.9781 14.9933 14.944C15.1262 16.342 14.7939 17.3649 14.1624 17.9446C14.4948 17.1263 14.2621 16.1715 13.8633 15.3532C13.4645 14.569 12.8995 13.8529 12.4675 13.1027C12.0354 12.3185 11.7031 11.4319 11.9025 10.5454C11.1049 11.1592 10.5399 12.0798 10.3073 13.0686C10.0746 14.0575 10.2076 15.1486 10.6396 16.0692C10.1411 15.6942 9.77557 15.0804 9.74232 14.4325C9.21057 15.0804 8.87825 15.9328 8.91146 16.7853C8.91149 18.1151 9.94173 19.3085 11.1049 19.7859Z" fill="white"/>
</g>
</svg>
