<svg width="24" height="24" viewBox="0 0 24 24" fill="none" xmlns="http://www.w3.org/2000/svg">
<g id="ic_features_menu">
<path id="Shape" fill-rule="evenodd" clip-rule="evenodd" d="M17.7273 10.4545C18.4273 10.4545 19 11.0273 19 11.7272H18.9364V13C18.9364 13.1272 18.9364 13.3182 18.8727 13.4454L16.9636 17.9636C16.7727 18.4091 16.3273 18.7273 15.8182 18.7273H10.0909C9.39091 18.7273 8.81818 18.1545 8.81818 17.4545V11.0909C8.81818 10.7091 8.94545 10.3909 9.2 10.2L13.4 6L14.1 6.63636C14.2273 6.82727 14.3545 7.08182 14.3545 7.33636V7.52727L13.7182 10.4545H17.7273ZM7.54545 18.7273H5V11.0909H7.54545V18.7273Z" fill="#212121"/>
</g>
</svg>
