<svg width="18" height="16" viewBox="0 0 18 16" fill="none" xmlns="http://www.w3.org/2000/svg">
<path fill-rule="evenodd" clip-rule="evenodd" d="M12.5695 1.01017C13.7526 1.01017 14.861 1.4678 15.6983 2.30508C16.5356 3.14237 16.9932 4.25424 16.9898 5.43729C16.9898 6.62034 16.5288 7.7322 15.6915 8.56949L9.31188 14.9254C9.22375 15.0136 9.1051 15.0576 8.98985 15.0576C8.87459 15.0576 8.75595 15.0102 8.66782 14.922L2.30171 8.55593C1.46443 7.71864 1.00002 6.61017 1.00002 5.42712C0.996629 4.24407 1.45765 3.1322 2.29493 2.29492C3.12883 1.46102 4.2407 1 5.42036 1C6.60341 1 7.71866 1.46441 8.55595 2.30169L9.00002 2.74576L9.43731 2.30847C10.2746 1.47119 11.3865 1.01017 12.5695 1.01017ZM8.98985 13.9559L15.0475 7.92203C15.7119 7.25763 16.078 6.37627 16.0746 5.43729C16.0746 4.49831 15.7119 3.61695 15.0475 2.95254C14.3831 2.29153 13.5017 1.92542 12.5661 1.92542C11.6305 1.92542 10.7458 2.29153 10.0814 2.95593L9.32205 3.71525C9.14239 3.89492 8.85426 3.89492 8.67459 3.71525L7.90849 2.94915C7.24409 2.28475 6.35934 1.91864 5.42036 1.91864C4.48476 1.91864 3.60341 2.28475 2.94239 2.94576C2.27798 3.60678 1.91527 4.48814 1.91527 5.42712C1.91527 6.3661 2.28137 7.24746 2.94578 7.91186L8.98985 13.9559Z" fill="#4A4A4A"/>
<path d="M16.9898 5.43729L16.4898 5.43586V5.43729H16.9898ZM15.6915 8.56949L16.0444 8.9237L16.0451 8.92304L15.6915 8.56949ZM9.31188 14.9254L8.95899 14.5712L8.95833 14.5719L9.31188 14.9254ZM8.66782 14.922L8.31426 15.2756L8.66782 14.922ZM2.30171 8.55593L2.65527 8.20238H2.65527L2.30171 8.55593ZM1.00002 5.42712H1.50002L1.50002 5.42569L1.00002 5.42712ZM8.55595 2.30169L8.9095 1.94814V1.94814L8.55595 2.30169ZM9.00002 2.74576L8.64646 3.09932L9.00002 3.45287L9.35357 3.09932L9.00002 2.74576ZM9.43731 2.30847L9.79086 2.66203V2.66203L9.43731 2.30847ZM15.0475 7.92203L15.4003 8.27628L15.401 8.27559L15.0475 7.92203ZM8.98985 13.9559L8.6363 14.3095L8.98916 14.6623L9.34271 14.3102L8.98985 13.9559ZM16.0746 5.43729H15.5746L15.5746 5.43909L16.0746 5.43729ZM15.0475 2.95254L15.401 2.59899L15.4001 2.59809L15.0475 2.95254ZM10.0814 2.95593L9.72782 2.60238V2.60238L10.0814 2.95593ZM9.32205 3.71525L9.67561 4.06881L9.67561 4.06881L9.32205 3.71525ZM8.67459 3.71525L8.32104 4.06881L8.32104 4.06881L8.67459 3.71525ZM7.90849 2.94915L7.55494 3.30271L7.90849 2.94915ZM2.94239 2.94576L3.29504 3.30022L3.29594 3.29932L2.94239 2.94576ZM2.94578 7.91186L2.59223 8.26542L2.94578 7.91186ZM16.0519 1.95153C15.1206 1.02021 13.8848 0.51017 12.5695 0.51017V1.51017C13.6203 1.51017 14.6015 1.91539 15.3448 2.65864L16.0519 1.95153ZM17.4898 5.43872C17.4936 4.12281 16.9835 2.88311 16.0519 1.95153L15.3448 2.65864C16.0878 3.40163 16.4929 4.38566 16.4899 5.43586L17.4898 5.43872ZM16.0451 8.92304C16.976 7.99213 17.4898 6.75315 17.4898 5.43729H16.4898C16.4898 6.48753 16.0817 7.47228 15.338 8.21594L16.0451 8.92304ZM9.66478 15.2796L16.0444 8.9237L15.3386 8.21528L8.95899 14.5712L9.66478 15.2796ZM8.98985 15.5576C9.22878 15.5576 9.4774 15.467 9.66544 15.279L8.95833 14.5719C8.96436 14.5658 8.97054 14.5623 8.97534 14.5603C8.97974 14.5586 8.98433 14.5576 8.98985 14.5576V15.5576ZM8.31426 15.2756C8.49566 15.457 8.74127 15.5576 8.98985 15.5576V14.5576C9.00033 14.5576 9.0069 14.5597 9.01046 14.5611C9.01428 14.5627 9.01793 14.565 9.02137 14.5685L8.31426 15.2756ZM1.94816 8.90949L8.31426 15.2756L9.02137 14.5685L2.65527 8.20238L1.94816 8.90949ZM0.500019 5.42712C0.500019 6.74436 1.01823 7.97956 1.94816 8.90949L2.65527 8.20238C1.91062 7.45773 1.50002 6.47597 1.50002 5.42712H0.500019ZM1.94138 1.94136C1.0105 2.87224 0.496247 4.11166 0.500021 5.42855L1.50002 5.42569C1.49701 4.37648 1.90479 3.39216 2.64849 2.64847L1.94138 1.94136ZM5.42036 0.5C4.10797 0.5 2.86897 1.01378 1.94138 1.94136L2.64849 2.64847C3.3887 1.90826 4.37342 1.5 5.42036 1.5V0.5ZM8.9095 1.94814C7.979 1.01763 6.73679 0.5 5.42036 0.5V1.5C6.47003 1.5 7.45833 1.91118 8.2024 2.65525L8.9095 1.94814ZM9.35357 2.39221L8.9095 1.94814L8.2024 2.65525L8.64646 3.09932L9.35357 2.39221ZM9.08375 1.95492L8.64646 2.39221L9.35357 3.09932L9.79086 2.66203L9.08375 1.95492ZM12.5695 0.51017C11.2537 0.51017 10.0147 1.02401 9.08375 1.95492L9.79086 2.66203C10.5345 1.91837 11.5193 1.51017 12.5695 1.51017V0.51017ZM14.6946 7.56779L8.63699 13.6017L9.34271 14.3102L15.4003 8.27628L14.6946 7.56779ZM15.5746 5.43909C15.5775 6.24374 15.2649 6.9975 14.6939 7.56848L15.401 8.27559C16.1589 7.51776 16.5785 6.50881 16.5746 5.43548L15.5746 5.43909ZM14.6939 3.3061C15.264 3.87616 15.5746 4.6301 15.5746 5.43729H16.5746C16.5746 4.36651 16.1598 3.35774 15.401 2.59899L14.6939 3.3061ZM12.5661 2.42542C13.3686 2.42542 14.1234 2.7385 14.6948 3.307L15.4001 2.59809C14.6427 1.84455 13.6349 1.42542 12.5661 1.42542V2.42542ZM10.4349 3.30949C11.0057 2.73873 11.7633 2.42542 12.5661 2.42542V1.42542C11.4978 1.42542 10.4859 1.84432 9.72782 2.60238L10.4349 3.30949ZM9.67561 4.06881L10.4349 3.30949L9.72782 2.60238L8.9685 3.3617L9.67561 4.06881ZM8.32104 4.06881C8.69597 4.44373 9.30068 4.44373 9.67561 4.06881L8.9685 3.3617C8.97527 3.35494 8.98672 3.35 8.99832 3.35C9.00993 3.35 9.02138 3.35494 9.02815 3.3617L8.32104 4.06881ZM7.55494 3.30271L8.32104 4.06881L9.02815 3.3617L8.26205 2.5956L7.55494 3.30271ZM5.42036 2.41864C6.22682 2.41864 6.98436 2.73213 7.55494 3.30271L8.26205 2.5956C7.50381 1.83736 6.49186 1.41864 5.42036 1.41864V2.41864ZM3.29594 3.29932C3.86342 2.73184 4.61769 2.41864 5.42036 2.41864V1.41864C4.35184 1.41864 3.3434 1.83765 2.58884 2.59221L3.29594 3.29932ZM2.41527 5.42712C2.41527 4.6197 2.726 3.86635 3.29504 3.30022L2.58974 2.59131C1.82997 3.34721 1.41527 4.35657 1.41527 5.42712H2.41527ZM3.29933 7.55831C2.72839 6.98737 2.41527 6.23307 2.41527 5.42712H1.41527C1.41527 6.49914 1.83435 7.50754 2.59223 8.26542L3.29933 7.55831ZM9.3434 13.6024L3.29933 7.55831L2.59223 8.26542L8.6363 14.3095L9.3434 13.6024Z" fill="#4A4A4A"/>
</svg>
