<svg width="19" height="15" viewBox="0 0 19 15" fill="none" xmlns="http://www.w3.org/2000/svg">
<path fill-rule="evenodd" clip-rule="evenodd" d="M16.0972 4.97778L18.8549 7.25052C19.0231 7.38906 19.0495 7.63646 18.9109 7.80799L18.0698 8.83056C17.9312 8.99879 17.6806 9.02187 17.5123 8.88333L9.75399 2.49392C9.60555 2.37517 9.39444 2.37517 9.2493 2.49392L1.49097 8.88333C1.32274 9.02187 1.07205 8.99879 0.933504 8.83056L0.0923585 7.80799C-0.0461832 7.63976 -0.0230929 7.38906 0.145136 7.25052L8.49392 0.372917C9.07778 -0.108681 9.92222 -0.108681 10.5061 0.372917L13.4583 2.80399V0.409201C13.4583 0.191493 13.6365 0.0133681 13.8542 0.0133681H15.7014C15.9191 0.0133681 16.0972 0.191493 16.0972 0.409201V4.97778ZM16.0972 13.9863V9.25937C16.0972 9.14062 16.0444 9.02847 15.9554 8.9526L9.75399 3.84635C9.60555 3.7276 9.39444 3.7276 9.2493 3.84635L3.04791 8.9526C2.95555 9.02847 2.90278 9.14062 2.90278 9.25937V13.9863C2.90278 14.425 3.25573 14.778 3.69444 14.778H7.52083C7.73854 14.778 7.91666 14.5998 7.91666 14.3821V10.6877C7.91666 10.47 8.09479 10.2918 8.3125 10.2918H10.6875C10.9052 10.2918 11.0833 10.47 11.0833 10.6877V14.3821C11.0833 14.5998 11.2615 14.778 11.4792 14.778H15.3056C15.7443 14.778 16.0972 14.425 16.0972 13.9863Z" fill="#212121"/>
</svg>
