<svg width="17" height="9" viewBox="0 0 17 9" fill="none" xmlns="http://www.w3.org/2000/svg">
<path fill-rule="evenodd" clip-rule="evenodd" d="M0.959961 0.25H4.67132V1.51088H3.41951V7.08208H4.67132V8.33741H0.959961V7.08208H2.18092V1.51088H0.959961V0.25ZM9.25984 6.64883H7.33363L6.95456 8.33741H5.64985L7.75237 0.25H8.87636L10.9392 8.33741H9.6345L9.25984 6.64883ZM7.63777 5.32129H8.96892L8.31216 2.34406L7.63777 5.32129ZM12.839 5.37128V8.33741H11.6004V0.25H13.7955C14.1451 0.25 14.461 0.313877 14.7431 0.441632C15.0252 0.569387 15.2655 0.74713 15.4638 0.974867C15.6622 1.2026 15.815 1.4757 15.9222 1.79416C16.0295 2.11262 16.0831 2.46626 16.0831 2.85508C16.0831 3.21798 16.0295 3.5531 15.9222 3.86045C15.815 4.1678 15.6622 4.43349 15.4638 4.65753C15.2655 4.88156 15.0252 5.05653 14.7431 5.18243C14.461 5.30833 14.1451 5.37128 13.7955 5.37128H12.839ZM12.839 4.10485H13.7955C13.9718 4.10485 14.1246 4.07152 14.2539 4.00487C14.3832 3.93821 14.4912 3.84749 14.5778 3.73269C14.6645 3.6179 14.7292 3.48552 14.7718 3.33555C14.8144 3.18557 14.8357 3.02912 14.8357 2.86619C14.8357 2.67733 14.8144 2.50144 14.7718 2.33851C14.7292 2.17557 14.6645 2.03301 14.5778 1.91081C14.4912 1.78861 14.3832 1.69233 14.2539 1.62197C14.1246 1.55161 13.9718 1.51643 13.7955 1.51643H12.839V4.10485Z" fill="#737373"/>
</svg>
