<svg width="18" height="15" viewBox="0 0 18 15" fill="none" xmlns="http://www.w3.org/2000/svg">
<path fill-rule="evenodd" clip-rule="evenodd" d="M8.325 7.65H2.925V9H1.575V7.38028C1.575 6.78459 2.05959 6.3 2.65528 6.3H8.325V4.5H7.2C6.70303 4.5 6.3 4.09697 6.3 3.6V0.9C6.3 0.403031 6.70303 0 7.2 0H10.8C11.297 0 11.7 0.403031 11.7 0.9V3.6C11.7 4.09697 11.297 4.5 10.8 4.5H9.675V6.3H15.3447C15.9404 6.3 16.425 6.78488 16.425 7.38028V9H15.075V7.65H9.675V9H8.325V7.65ZM0.9 9.9H3.6C4.09697 9.9 4.5 10.303 4.5 10.8V13.5C4.5 13.997 4.09697 14.4 3.6 14.4H0.9C0.403031 14.4 0 13.997 0 13.5V10.8C0 10.303 0.403031 9.9 0.9 9.9ZM10.35 9.9H7.65C7.15303 9.9 6.75 10.303 6.75 10.8V13.5C6.75 13.997 7.15303 14.4 7.65 14.4H10.35C10.847 14.4 11.25 13.997 11.25 13.5V10.8C11.25 10.303 10.847 9.9 10.35 9.9ZM14.4 9.9H17.1C17.597 9.9 18 10.303 18 10.8V13.5C18 13.997 17.597 14.4 17.1 14.4H14.4C13.903 14.4 13.5 13.997 13.5 13.5V10.8C13.5 10.303 13.903 9.9 14.4 9.9Z" fill="#212121"/>
</svg>
