<svg width="155" height="28" viewBox="0 0 155 28" fill="none" xmlns="http://www.w3.org/2000/svg">
<path fill-rule="evenodd" clip-rule="evenodd" d="M19.0264 0H8.9736C5.85328 0 4.72178 0.32489 3.58104 0.934964C2.4403 1.54504 1.54504 2.4403 0.934964 3.58104C0.32489 4.72178 0 5.85328 0 8.9736V19.0264C0 22.1467 0.32489 23.2782 0.934964 24.419C1.54504 25.5597 2.4403 26.455 3.58104 27.065C4.72178 27.6751 5.85328 28 8.9736 28H19.0264C22.1467 28 23.2782 27.6751 24.419 27.065C25.5597 26.455 26.455 25.5597 27.065 24.419C27.6751 23.2782 28 22.1467 28 19.0264V8.9736C28 5.85328 27.6751 4.72178 27.065 3.58104C26.455 2.4403 25.5597 1.54504 24.419 0.934964C23.2782 0.32489 22.1467 0 19.0264 0ZM4.31221 2.30179C5.35338 1.74497 6.36293 1.55001 8.97379 1.55001H19.0266C21.6375 1.55001 22.647 1.74497 23.6882 2.30179C24.5588 2.7674 25.2328 3.44141 25.6984 4.31203C26.2552 5.3532 26.4502 6.36275 26.4502 8.97361V19.0264C26.4502 21.6373 26.2552 22.6468 25.6984 23.688C25.2328 24.5586 24.5588 25.2326 23.6882 25.6982C22.647 26.2551 21.6375 26.45 19.0266 26.45H8.97379C6.36293 26.45 5.35338 26.2551 4.31221 25.6982C3.44159 25.2326 2.76759 24.5586 2.30197 23.688C1.74515 22.6468 1.5502 21.6373 1.5502 19.0264V8.97361C1.5502 6.36275 1.74515 5.3532 2.30197 4.31203C2.76759 3.44141 3.44159 2.7674 4.31221 2.30179Z" fill="white"/>
<path d="M14.2623 22.7451C8.31608 22.7451 4.1619 18.298 4.08044 18.2157C3.92576 17.8903 3.99868 17.501 4.26032 17.2554C4.52196 17.0098 4.91133 16.965 5.22081 17.1451C5.54662 17.4745 13.6106 26.0392 23.2223 17.0627C23.5572 16.9225 23.9435 17.0229 24.17 17.3091C24.3964 17.5953 24.4086 17.9984 24.1997 18.298C20.6157 21.6745 17.1946 22.7451 14.2623 22.7451Z" fill="white"/>
<path fill-rule="evenodd" clip-rule="evenodd" d="M20.2808 11.3764C19.0304 12.1354 17.3785 11.9747 16.2981 10.8943C15.0289 9.62508 15.0289 7.5673 16.2981 6.29809C17.5673 5.02889 19.6251 5.02889 20.8943 6.29809C21.9746 7.37837 22.1354 9.02994 21.3767 10.2803L23.0337 11.9373C23.3363 12.2399 23.3363 12.7306 23.0337 13.0333C22.731 13.336 22.2403 13.336 21.9377 13.0333L20.2808 11.3764ZM19.7979 9.79827C20.4618 9.13438 20.4618 8.058 19.7979 7.39411C19.134 6.73022 18.0577 6.73022 17.3938 7.39411C16.7299 8.058 16.7299 9.13438 17.3938 9.79827C18.0577 10.4622 19.134 10.4622 19.7979 9.79827Z" fill="white"/>
<path fill-rule="evenodd" clip-rule="evenodd" d="M7.51121 11.3071C8.76162 12.0661 10.4135 11.9054 11.4939 10.825C12.7631 9.55575 12.7631 7.49796 11.4939 6.22876C10.2247 4.95955 8.16691 4.95955 6.8977 6.22876C5.81742 7.30904 5.65662 8.9606 6.41529 10.211L4.7583 11.8679C4.45564 12.1706 4.45564 12.6613 4.7583 12.964C5.06096 13.2666 5.55166 13.2666 5.85431 12.964L7.51121 11.3071ZM7.99407 9.72894C7.33018 9.06504 7.33018 7.98866 7.99407 7.32477C8.65796 6.66088 9.73434 6.66088 10.3982 7.32477C11.0621 7.98866 11.0621 9.06504 10.3982 9.72894C9.73434 10.3928 8.65796 10.3928 7.99407 9.72894Z" fill="white"/>
<path fill-rule="evenodd" clip-rule="evenodd" d="M44.1378 20.0002V18.6677C43.7551 19.146 43.2632 19.5082 42.6618 19.7542C42.0605 20.0002 41.3703 20.1232 40.5913 20.1232C39.826 20.1232 39.1529 19.9762 38.5721 19.6824C37.9912 19.3886 37.5436 18.982 37.2293 18.4627C36.915 17.9433 36.7578 17.3625 36.7578 16.7202C36.7578 15.6952 37.12 14.8922 37.8443 14.3114C38.5687 13.7306 39.5936 13.4333 40.9193 13.4197H44.1173V13.1327C44.1173 12.4903 43.9055 11.9915 43.4818 11.6362C43.0581 11.2808 42.4432 11.1032 41.6368 11.1032C40.5981 11.1032 39.5117 11.4448 38.3773 12.1282L37.4138 10.2832C38.2748 9.80482 39.0572 9.45974 39.7611 9.24791C40.4649 9.03608 41.2883 8.93016 42.2313 8.93016C43.6527 8.93016 44.7562 9.27182 45.5421 9.95516C46.3279 10.6385 46.7276 11.5952 46.7413 12.8252L46.7618 20.0002H44.1378ZM43.1948 17.5299C43.7415 17.1678 44.049 16.7202 44.1173 16.1872V15.2032H41.3498C40.6392 15.2032 40.1164 15.3091 39.7816 15.5209C39.4467 15.7328 39.2793 16.0778 39.2793 16.5562C39.2793 17.0208 39.4536 17.3898 39.8021 17.6632C40.1506 17.9365 40.6255 18.0732 41.2268 18.0732C41.9922 18.0732 42.6482 17.8921 43.1948 17.5299ZM58.9285 9.65793C59.7143 10.1294 60.3225 10.7888 60.753 11.6362C61.1835 12.4835 61.3987 13.4607 61.3987 14.5677C61.3987 15.661 61.1869 16.6245 60.7632 17.4582C60.3395 18.2919 59.7382 18.941 58.9592 19.4057C58.1802 19.8704 57.2782 20.1027 56.2532 20.1027C55.4332 20.1027 54.7089 19.9421 54.0802 19.6209C53.4515 19.2998 52.9322 18.8317 52.5222 18.2167V23.9772H49.8572V9.03268H52.5222V10.8367C52.9185 10.2217 53.4276 9.7536 54.0495 9.43243C54.6713 9.11126 55.3922 8.95068 56.2122 8.95068C57.2372 8.95068 58.1426 9.18643 58.9285 9.65793ZM57.8317 16.8739C58.4057 16.2521 58.6927 15.456 58.6927 14.4857C58.6927 13.5153 58.4057 12.7227 57.8317 12.1077C57.2577 11.4927 56.5197 11.1852 55.6177 11.1852C54.702 11.1852 53.9572 11.4927 53.3832 12.1077C52.8092 12.7227 52.5222 13.5153 52.5222 14.4857C52.5222 15.4697 52.8092 16.2692 53.3832 16.8842C53.9572 17.4992 54.702 17.8067 55.6177 17.8067C56.5197 17.8067 57.2577 17.4957 57.8317 16.8739ZM72.8895 9.65793C73.6753 10.1294 74.2835 10.7888 74.714 11.6362C75.1445 12.4835 75.3597 13.4607 75.3597 14.5677C75.3597 15.661 75.1479 16.6245 74.7242 17.4582C74.3006 18.2919 73.6992 18.941 72.9202 19.4057C72.1412 19.8704 71.2392 20.1027 70.2142 20.1027C69.3942 20.1027 68.6699 19.9421 68.0412 19.6209C67.4126 19.2998 66.8932 18.8317 66.4832 18.2167V23.9772H63.8182V9.03268H66.4832V10.8367C66.8796 10.2217 67.3887 9.7536 68.0105 9.43243C68.6323 9.11126 69.3532 8.95068 70.1732 8.95068C71.1982 8.95068 72.1037 9.18643 72.8895 9.65793ZM71.7927 16.8739C72.3667 16.2521 72.6537 15.456 72.6537 14.4857C72.6537 13.5153 72.3667 12.7227 71.7927 12.1077C71.2187 11.4927 70.4807 11.1852 69.5787 11.1852C68.663 11.1852 67.9182 11.4927 67.3442 12.1077C66.7702 12.7227 66.4832 13.5153 66.4832 14.4857C66.4832 15.4697 66.7702 16.2692 67.3442 16.8842C67.9182 17.4992 68.663 17.8067 69.5787 17.8067C70.4807 17.8067 71.2187 17.4957 71.7927 16.8739ZM87.7007 9.03268V18.9547C87.7007 19.9934 87.465 20.8988 86.9935 21.6709C86.522 22.4431 85.8523 23.0376 84.9845 23.4544C84.1166 23.8713 83.1087 24.0797 81.9607 24.0797C80.2934 24.0797 78.7491 23.5945 77.3277 22.6242L78.3937 20.6972C79.4324 21.4625 80.5736 21.8452 81.8172 21.8452C82.8012 21.8452 83.5836 21.5924 84.1645 21.0867C84.7453 20.581 85.0357 19.8909 85.0357 19.0162V17.7247C84.6667 18.285 84.1884 18.7121 83.6007 19.0059C83.0131 19.2998 82.3297 19.4467 81.5507 19.4467C80.5941 19.4467 79.7467 19.2246 79.0087 18.7804C78.2707 18.3363 77.6967 17.7144 77.2867 16.9149C76.8767 16.1154 76.6717 15.1964 76.6717 14.1577C76.6717 13.1327 76.8767 12.2273 77.2867 11.4414C77.6967 10.6556 78.2707 10.044 79.0087 9.60668C79.7467 9.16935 80.5941 8.95068 81.5507 8.95068C82.3161 8.95068 82.996 9.10101 83.5905 9.40168C84.185 9.70235 84.6667 10.126 85.0357 10.6727V9.03268H87.7007ZM84.226 16.4844C84.7658 15.9036 85.0357 15.1485 85.0357 14.2192C85.0357 13.2898 84.7658 12.5348 84.226 11.9539C83.6862 11.3731 82.9857 11.0827 82.1247 11.0827C81.2637 11.0827 80.5633 11.3765 80.0235 11.9642C79.4837 12.5518 79.2069 13.3035 79.1932 14.2192C79.2069 15.1485 79.4837 15.9036 80.0235 16.4844C80.5633 17.0652 81.2637 17.3557 82.1247 17.3557C82.9857 17.3557 83.6862 17.0652 84.226 16.4844ZM95.0085 9.51441C95.644 9.13858 96.3854 8.94383 97.2327 8.93016V11.5132C96.0984 11.4448 95.193 11.7079 94.5165 12.3024C93.84 12.8969 93.5017 13.6998 93.5017 14.7112V20.0002H90.8367V9.03266H93.5017V11.1442C93.8707 10.4335 94.373 9.89025 95.0085 9.51441ZM106.899 9.64768C107.766 10.1124 108.443 10.7649 108.928 11.6054C109.413 12.4459 109.656 13.4128 109.656 14.5062C109.656 15.6132 109.413 16.5903 108.928 17.4377C108.443 18.285 107.766 18.941 106.899 19.4057C106.031 19.8704 105.03 20.1027 103.895 20.1027C102.747 20.1027 101.736 19.8704 100.861 19.4057C99.9867 18.941 99.3068 18.285 98.8216 17.4377C98.3365 16.5903 98.0939 15.6132 98.0939 14.5062C98.0939 13.4128 98.3365 12.4459 98.8216 11.6054C99.3068 10.7649 99.9867 10.1124 100.861 9.64768C101.736 9.18301 102.747 8.95068 103.895 8.95068C105.03 8.95068 106.031 9.18301 106.899 9.64768ZM101.64 12.1487C101.066 12.7637 100.779 13.5632 100.779 14.5472C100.779 15.5312 101.066 16.3307 101.64 16.9457C102.214 17.5607 102.966 17.8682 103.895 17.8682C104.797 17.8682 105.535 17.5607 106.109 16.9457C106.683 16.3307 106.97 15.5312 106.97 14.5472C106.97 13.5632 106.683 12.7637 106.109 12.1487C105.535 11.5337 104.797 11.2262 103.895 11.2262C102.966 11.2262 102.214 11.5337 101.64 12.1487ZM119.773 9.64768C120.64 10.1124 121.317 10.7649 121.802 11.6054C122.287 12.4459 122.53 13.4128 122.53 14.5062C122.53 15.6132 122.287 16.5903 121.802 17.4377C121.317 18.285 120.64 18.941 119.773 19.4057C118.905 19.8704 117.904 20.1027 116.769 20.1027C115.621 20.1027 114.61 19.8704 113.735 19.4057C112.861 18.941 112.181 18.285 111.696 17.4377C111.21 16.5903 110.968 15.6132 110.968 14.5062C110.968 13.4128 111.21 12.4459 111.696 11.6054C112.181 10.7649 112.861 10.1124 113.735 9.64768C114.61 9.18301 115.621 8.95068 116.769 8.95068C117.904 8.95068 118.905 9.18301 119.773 9.64768ZM114.514 12.1487C113.94 12.7637 113.653 13.5632 113.653 14.5472C113.653 15.5312 113.94 16.3307 114.514 16.9457C115.088 17.5607 115.84 17.8682 116.769 17.8682C117.671 17.8682 118.409 17.5607 118.983 16.9457C119.557 16.3307 119.844 15.5312 119.844 14.5472C119.844 13.5632 119.557 12.7637 118.983 12.1487C118.409 11.5337 117.671 11.2262 116.769 11.2262C115.84 11.2262 115.088 11.5337 114.514 12.1487ZM122.776 9.05318L125.564 9.03268L128.434 17.3762L131.243 9.03268H133.928L129.746 20.0002H126.999L122.776 9.05318ZM143.594 10.4472C144.475 11.4449 144.916 12.8457 144.916 14.6497C144.916 15.005 144.909 15.2715 144.895 15.4492H136.798C136.976 16.2282 137.341 16.8398 137.895 17.2839C138.448 17.7281 139.128 17.9502 139.934 17.9502C140.495 17.9502 141.031 17.8443 141.544 17.6324C142.056 17.4206 142.504 17.1165 142.886 16.7202L144.321 18.2167C143.775 18.818 143.108 19.2827 142.323 19.6107C141.537 19.9387 140.666 20.1027 139.709 20.1027C138.588 20.1027 137.601 19.8704 136.747 19.4057C135.892 18.941 135.233 18.2884 134.768 17.4479C134.304 16.6074 134.071 15.6405 134.071 14.5472C134.071 13.4538 134.307 12.4835 134.779 11.6362C135.25 10.7888 135.91 10.1294 136.757 9.65793C137.604 9.18643 138.568 8.95068 139.647 8.95068C141.397 8.95068 142.712 9.44951 143.594 10.4472ZM142.476 13.6657C142.449 12.8593 142.182 12.217 141.677 11.7387C141.171 11.2603 140.501 11.0212 139.668 11.0212C138.889 11.0212 138.236 11.2569 137.71 11.7284C137.184 12.1999 136.859 12.8457 136.736 13.6657H142.476ZM152.06 11.2672C151.493 11.0895 150.971 11.0007 150.492 11.0007C150.041 11.0007 149.682 11.0793 149.416 11.2364C149.149 11.3936 149.016 11.6362 149.016 11.9642C149.016 12.3058 149.184 12.5689 149.518 12.7534C149.853 12.9379 150.383 13.1327 151.107 13.3377C151.873 13.57 152.501 13.7989 152.993 14.0244C153.485 14.2499 153.912 14.5847 154.274 15.0289C154.637 15.4731 154.818 16.0573 154.818 16.7817C154.818 17.8477 154.408 18.6677 153.588 19.2417C152.768 19.8157 151.736 20.1027 150.492 20.1027C149.645 20.1027 148.818 19.9694 148.012 19.7029C147.205 19.4364 146.522 19.0572 145.962 18.5652L146.884 16.6997C147.376 17.1233 147.964 17.4548 148.647 17.6939C149.331 17.9331 149.98 18.0527 150.595 18.0527C151.087 18.0527 151.48 17.9673 151.773 17.7964C152.067 17.6256 152.214 17.3693 152.214 17.0277C152.214 16.645 152.043 16.358 151.702 16.1667C151.36 15.9753 150.807 15.7635 150.041 15.5312C149.303 15.3125 148.702 15.0973 148.237 14.8854C147.773 14.6736 147.369 14.3524 147.028 13.9219C146.686 13.4914 146.515 12.9277 146.515 12.2307C146.515 11.151 146.908 10.3276 147.694 9.76042C148.48 9.19325 149.467 8.90967 150.656 8.90967C151.381 8.90967 152.095 9.01217 152.798 9.21717C153.502 9.42217 154.128 9.70917 154.674 10.0782L153.711 12.0052C153.178 11.6908 152.628 11.4448 152.06 11.2672Z" fill="white"/>
</svg>
