<svg width="48" height="48" viewBox="0 0 48 48" fill="none" xmlns="http://www.w3.org/2000/svg">
<path fill-rule="evenodd" clip-rule="evenodd" d="M48 24C48 20.75 47.3661 17.6429 46.0982 14.6786C44.8303 11.7143 43.125 9.16072 40.9821 7.01786C38.8393 4.87499 36.2857 3.16965 33.3214 1.90179C30.3571 0.633922 27.25 0 24 0C20.75 0 17.6429 0.633922 14.6786 1.90179C11.7143 3.16965 9.16072 4.87499 7.01786 7.01786C4.87499 9.16072 3.16965 11.7143 1.90179 14.6786C0.633922 17.6429 0 20.75 0 24C0 27.25 0.633922 30.3571 1.90179 33.3214C3.16965 36.2857 4.87499 38.8393 7.01786 40.9821C9.16072 43.125 11.7143 44.8303 14.6786 46.0982C17.6429 47.3661 20.75 48 24 48C27.2679 48 30.3839 47.3661 33.3482 46.0982C36.3125 44.8303 38.8616 43.1205 40.9955 40.9688C43.1295 38.817 44.8303 36.2634 46.0982 33.308C47.3661 30.3527 48 27.25 48 24ZM31.2589 24.4286C33.2768 22.4107 34.2857 19.9822 34.2857 17.1429C34.2857 14.3036 33.2813 11.8795 31.2723 9.87054C29.2634 7.8616 26.8393 6.85714 24 6.85714C21.1607 6.85714 18.7366 7.8616 16.7277 9.87054C14.7187 11.8795 13.7143 14.3036 13.7143 17.1429C13.7143 19.9822 14.7187 22.4062 16.7277 24.4152C18.7366 26.4241 21.1607 27.4286 24 27.4286C26.8393 27.4286 29.2589 26.4286 31.2589 24.4286ZM40.7946 35.8661C40.4018 33.0982 39.6205 30.7991 38.4509 28.9688C37.2812 27.1384 35.6339 26.0804 33.5089 25.7946C32.3125 27.1161 30.8884 28.1473 29.2366 28.8884C27.5848 29.6295 25.8393 30 24 30C22.1607 30 20.4152 29.6295 18.7634 28.8884C17.1116 28.1473 15.6875 27.1161 14.4911 25.7946C12.3661 26.0804 10.7188 27.1384 9.54911 28.9688C8.37946 30.7991 7.59822 33.0982 7.20536 35.8661C9.09822 38.5447 11.5178 40.6652 14.4643 42.2277C17.4107 43.7902 20.5893 44.5714 24 44.5714C27.4107 44.5714 30.5893 43.7902 33.5357 42.2277C36.4822 40.6652 38.9018 38.5447 40.7946 35.8661Z" fill="#B2B2B2"/>
</svg>
